<svg width="266" height="19" viewBox="0 0 266 19" fill="none" xmlns="http://www.w3.org/2000/svg">
<path d="M9.55825 18.24C8.27825 18.24 7.08625 18.032 5.98225 17.616C4.89425 17.184 3.94225 16.584 3.12625 15.816C2.32625 15.032 1.70225 14.112 1.25425 13.056C0.806245 12 0.582245 10.848 0.582245 9.6C0.582245 8.352 0.806245 7.2 1.25425 6.144C1.70225 5.088 2.33425 4.176 3.15025 3.408C3.96625 2.624 4.91825 2.024 6.00625 1.608C7.09425 1.176 8.28625 0.959999 9.58225 0.959999C10.9582 0.959999 12.2142 1.2 13.3502 1.68C14.4862 2.144 15.4462 2.84 16.2302 3.768L14.2142 5.664C13.6062 5.008 12.9262 4.52 12.1742 4.2C11.4222 3.864 10.6062 3.696 9.72625 3.696C8.84625 3.696 8.03825 3.84 7.30225 4.128C6.58225 4.416 5.95025 4.824 5.40625 5.352C4.87825 5.88 4.46225 6.504 4.15825 7.224C3.87025 7.944 3.72625 8.736 3.72625 9.6C3.72625 10.464 3.87025 11.256 4.15825 11.976C4.46225 12.696 4.87825 13.32 5.40625 13.848C5.95025 14.376 6.58225 14.784 7.30225 15.072C8.03825 15.36 8.84625 15.504 9.72625 15.504C10.6062 15.504 11.4222 15.344 12.1742 15.024C12.9262 14.688 13.6062 14.184 14.2142 13.512L16.2302 15.432C15.4462 16.344 14.4862 17.04 13.3502 17.52C12.2142 18 10.9502 18.24 9.55825 18.24ZM30.3077 1.2H33.4277V18H30.3077V1.2ZM21.6197 18H18.4997V1.2H21.6197V18ZM30.5477 10.8H21.3557V8.136H30.5477V10.8ZM45.0814 18.24C43.7694 18.24 42.5614 18.024 41.4574 17.592C40.3534 17.16 39.3934 16.56 38.5774 15.792C37.7614 15.008 37.1294 14.096 36.6814 13.056C36.2334 12 36.0094 10.848 36.0094 9.6C36.0094 8.352 36.2334 7.208 36.6814 6.168C37.1294 5.112 37.7614 4.2 38.5774 3.432C39.3934 2.648 40.3534 2.04 41.4574 1.608C42.5614 1.176 43.7614 0.959999 45.0574 0.959999C46.3694 0.959999 47.5694 1.176 48.6574 1.608C49.7614 2.04 50.7214 2.648 51.5374 3.432C52.3534 4.2 52.9854 5.112 53.4334 6.168C53.8814 7.208 54.1054 8.352 54.1054 9.6C54.1054 10.848 53.8814 12 53.4334 13.056C52.9854 14.112 52.3534 15.024 51.5374 15.792C50.7214 16.56 49.7614 17.16 48.6574 17.592C47.5694 18.024 46.3774 18.24 45.0814 18.24ZM45.0574 15.504C45.9054 15.504 46.6894 15.36 47.4094 15.072C48.1294 14.784 48.7534 14.376 49.2814 13.848C49.8094 13.304 50.2174 12.68 50.5054 11.976C50.8094 11.256 50.9614 10.464 50.9614 9.6C50.9614 8.736 50.8094 7.952 50.5054 7.248C50.2174 6.528 49.8094 5.904 49.2814 5.376C48.7534 4.832 48.1294 4.416 47.4094 4.128C46.6894 3.84 45.9054 3.696 45.0574 3.696C44.2094 3.696 43.4254 3.84 42.7054 4.128C42.0014 4.416 41.3774 4.832 40.8334 5.376C40.3054 5.904 39.8894 6.528 39.5854 7.248C39.2974 7.952 39.1534 8.736 39.1534 9.6C39.1534 10.448 39.2974 11.232 39.5854 11.952C39.8894 12.672 40.3054 13.304 40.8334 13.848C41.3614 14.376 41.9854 14.784 42.7054 15.072C43.4254 15.36 44.2094 15.504 45.0574 15.504ZM64.4686 18.24C63.1886 18.24 61.9966 18.032 60.8926 17.616C59.8046 17.184 58.8526 16.584 58.0366 15.816C57.2366 15.032 56.6126 14.112 56.1646 13.056C55.7166 12 55.4926 10.848 55.4926 9.6C55.4926 8.352 55.7166 7.2 56.1646 6.144C56.6126 5.088 57.2446 4.176 58.0606 3.408C58.8766 2.624 59.8286 2.024 60.9166 1.608C62.0046 1.176 63.1966 0.959999 64.4926 0.959999C65.8686 0.959999 67.1246 1.2 68.2606 1.68C69.3966 2.144 70.3566 2.84 71.1406 3.768L69.1246 5.664C68.5166 5.008 67.8366 4.52 67.0846 4.2C66.3326 3.864 65.5166 3.696 64.6366 3.696C63.7566 3.696 62.9486 3.84 62.2126 4.128C61.4926 4.416 60.8606 4.824 60.3166 5.352C59.7886 5.88 59.3726 6.504 59.0686 7.224C58.7806 7.944 58.6366 8.736 58.6366 9.6C58.6366 10.464 58.7806 11.256 59.0686 11.976C59.3726 12.696 59.7886 13.32 60.3166 13.848C60.8606 14.376 61.4926 14.784 62.2126 15.072C62.9486 15.36 63.7566 15.504 64.6366 15.504C65.5166 15.504 66.3326 15.344 67.0846 15.024C67.8366 14.688 68.5166 14.184 69.1246 13.512L71.1406 15.432C70.3566 16.344 69.3966 17.04 68.2606 17.52C67.1246 18 65.8606 18.24 64.4686 18.24ZM80.9305 18.24C79.6185 18.24 78.4105 18.024 77.3065 17.592C76.2025 17.16 75.2425 16.56 74.4265 15.792C73.6105 15.008 72.9785 14.096 72.5305 13.056C72.0825 12 71.8585 10.848 71.8585 9.6C71.8585 8.352 72.0825 7.208 72.5305 6.168C72.9785 5.112 73.6105 4.2 74.4265 3.432C75.2425 2.648 76.2025 2.04 77.3065 1.608C78.4105 1.176 79.6105 0.959999 80.9065 0.959999C82.2185 0.959999 83.4185 1.176 84.5065 1.608C85.6105 2.04 86.5705 2.648 87.3865 3.432C88.2025 4.2 88.8345 5.112 89.2825 6.168C89.7305 7.208 89.9545 8.352 89.9545 9.6C89.9545 10.848 89.7305 12 89.2825 13.056C88.8345 14.112 88.2025 15.024 87.3865 15.792C86.5705 16.56 85.6105 17.16 84.5065 17.592C83.4185 18.024 82.2265 18.24 80.9305 18.24ZM80.9065 15.504C81.7545 15.504 82.5385 15.36 83.2585 15.072C83.9785 14.784 84.6025 14.376 85.1305 13.848C85.6585 13.304 86.0665 12.68 86.3545 11.976C86.6585 11.256 86.8105 10.464 86.8105 9.6C86.8105 8.736 86.6585 7.952 86.3545 7.248C86.0665 6.528 85.6585 5.904 85.1305 5.376C84.6025 4.832 83.9785 4.416 83.2585 4.128C82.5385 3.84 81.7545 3.696 80.9065 3.696C80.0585 3.696 79.2745 3.84 78.5545 4.128C77.8505 4.416 77.2265 4.832 76.6825 5.376C76.1545 5.904 75.7385 6.528 75.4345 7.248C75.1465 7.952 75.0025 8.736 75.0025 9.6C75.0025 10.448 75.1465 11.232 75.4345 11.952C75.7385 12.672 76.1545 13.304 76.6825 13.848C77.2105 14.376 77.8345 14.784 78.5545 15.072C79.2745 15.36 80.0585 15.504 80.9065 15.504ZM92.5416 18V1.2H95.6616V15.36H104.446V18H92.5416ZM103.836 18L111.396 1.2H114.468L122.052 18H118.788L112.284 2.856H113.532L107.052 18H103.836ZM107.316 14.112L108.156 11.664H117.228L118.068 14.112H107.316ZM126.033 18V3.84H120.465V1.2H134.721V3.84H129.153V18H126.033ZM139.223 8.184H147.575V10.752H139.223V8.184ZM139.463 15.384H148.943V18H136.343V1.2H148.607V3.816H139.463V15.384Z" fill="#FD9222"/>
<path d="M157.613 18V1.2H160.733V18H157.613ZM169.766 18.24C168.454 18.24 167.198 18.056 165.998 17.688C164.798 17.304 163.846 16.816 163.142 16.224L164.222 13.8C164.894 14.328 165.726 14.768 166.718 15.12C167.71 15.472 168.726 15.648 169.766 15.648C170.646 15.648 171.358 15.552 171.902 15.36C172.446 15.168 172.846 14.912 173.102 14.592C173.358 14.256 173.486 13.88 173.486 13.464C173.486 12.952 173.302 12.544 172.934 12.24C172.566 11.92 172.086 11.672 171.494 11.496C170.918 11.304 170.27 11.128 169.55 10.968C168.846 10.808 168.134 10.624 167.414 10.416C166.71 10.192 166.062 9.912 165.47 9.576C164.894 9.224 164.422 8.76 164.054 8.184C163.686 7.608 163.502 6.872 163.502 5.976C163.502 5.064 163.742 4.232 164.222 3.48C164.718 2.712 165.462 2.104 166.454 1.656C167.462 1.192 168.734 0.959999 170.27 0.959999C171.278 0.959999 172.278 1.088 173.27 1.344C174.262 1.6 175.126 1.968 175.862 2.448L174.878 4.872C174.126 4.424 173.35 4.096 172.55 3.888C171.75 3.664 170.982 3.552 170.246 3.552C169.382 3.552 168.678 3.656 168.134 3.864C167.606 4.072 167.214 4.344 166.958 4.68C166.718 5.016 166.598 5.4 166.598 5.832C166.598 6.344 166.774 6.76 167.126 7.08C167.494 7.384 167.966 7.624 168.542 7.8C169.134 7.976 169.79 8.152 170.51 8.328C171.23 8.488 171.942 8.672 172.646 8.88C173.366 9.088 174.014 9.36 174.59 9.696C175.182 10.032 175.654 10.488 176.006 11.064C176.374 11.64 176.558 12.368 176.558 13.248C176.558 14.144 176.31 14.976 175.814 15.744C175.334 16.496 174.59 17.104 173.582 17.568C172.574 18.016 171.302 18.24 169.766 18.24ZM184.844 18V1.2H187.964V15.36H196.748V18H184.844ZM206.059 18.24C204.747 18.24 203.539 18.024 202.435 17.592C201.331 17.16 200.371 16.56 199.555 15.792C198.739 15.008 198.107 14.096 197.659 13.056C197.211 12 196.987 10.848 196.987 9.6C196.987 8.352 197.211 7.208 197.659 6.168C198.107 5.112 198.739 4.2 199.555 3.432C200.371 2.648 201.331 2.04 202.435 1.608C203.539 1.176 204.739 0.959999 206.035 0.959999C207.347 0.959999 208.547 1.176 209.635 1.608C210.739 2.04 211.699 2.648 212.515 3.432C213.331 4.2 213.963 5.112 214.411 6.168C214.859 7.208 215.083 8.352 215.083 9.6C215.083 10.848 214.859 12 214.411 13.056C213.963 14.112 213.331 15.024 212.515 15.792C211.699 16.56 210.739 17.16 209.635 17.592C208.547 18.024 207.355 18.24 206.059 18.24ZM206.035 15.504C206.883 15.504 207.667 15.36 208.387 15.072C209.107 14.784 209.731 14.376 210.259 13.848C210.787 13.304 211.195 12.68 211.483 11.976C211.787 11.256 211.939 10.464 211.939 9.6C211.939 8.736 211.787 7.952 211.483 7.248C211.195 6.528 210.787 5.904 210.259 5.376C209.731 4.832 209.107 4.416 208.387 4.128C207.667 3.84 206.883 3.696 206.035 3.696C205.187 3.696 204.403 3.84 203.683 4.128C202.979 4.416 202.355 4.832 201.811 5.376C201.283 5.904 200.867 6.528 200.563 7.248C200.275 7.952 200.131 8.736 200.131 9.6C200.131 10.448 200.275 11.232 200.563 11.952C200.867 12.672 201.283 13.304 201.811 13.848C202.339 14.376 202.963 14.784 203.683 15.072C204.403 15.36 205.187 15.504 206.035 15.504ZM222.099 18L214.755 1.2H218.139L224.691 16.392H222.747L229.371 1.2H232.491L225.171 18H222.099ZM236.423 8.184H244.775V10.752H236.423V8.184ZM236.663 15.384H246.143V18H233.543V1.2H245.807V3.816H236.663V15.384ZM248.902 18V1.2H256.246C258.07 1.2 259.67 1.552 261.046 2.256C262.422 2.96 263.494 3.936 264.262 5.184C265.03 6.432 265.414 7.904 265.414 9.6C265.414 11.28 265.03 12.752 264.262 14.016C263.494 15.264 262.422 16.24 261.046 16.944C259.67 17.648 258.07 18 256.246 18H248.902ZM252.022 15.36H256.102C257.366 15.36 258.454 15.12 259.366 14.64C260.294 14.16 261.006 13.488 261.502 12.624C262.014 11.76 262.27 10.752 262.27 9.6C262.27 8.432 262.014 7.424 261.502 6.576C261.006 5.712 260.294 5.04 259.366 4.56C258.454 4.08 257.366 3.84 256.102 3.84H252.022V15.36Z" fill="#111111"/>
</svg>
